<svg id="Слой_2" data-name="Слой 2" xmlns="http://www.w3.org/2000/svg" viewBox="0 0 182.93 405.44"><defs><style>.cls-1{fill:#ffd5b9;}.cls-2{fill:#795548;}.cls-3{fill:#efc3a6;}.cls-4{fill:#487deb;}.cls-5{fill:#364573;}.cls-6{fill:#003898;}.cls-7{fill:#002077;}.cls-8{fill:#f85e77;}.cls-9{fill:#fff;}.cls-10{fill:#3370dc;}</style></defs><path class="cls-1" d="M149.93,61.61c-.5-.89-.5-2.11.5-3.72s1-3.39,0-4.39-5,2-5,2a2.83,2.83,0,0,1-3-3.08c1.05-7.09-2-7.92-4-8.92-1.45-.72-8.65-2.49-12.52-3.41l0-.09-.11-.12c-.47,1.73-6.82,25-3,27.89,4,3,15.5,4.5,22.5,1.5a24,24,0,0,0,2.76-1.41C149,65.73,150.28,62.23,149.93,61.61Z" transform="translate(-82.59 -25.56)"/><path class="cls-2" d="M147.62,26.55c-8.72-3.06-15.51,2-17.45,1s-5.82,0-5.82,0-3.88,7.13,1.45,12.73l0,.08c3.76.94,10.74,2.74,12.15,3.48,1.94,1,4.93,1.86,3.92,9.07a2.8,2.8,0,0,0,2.87,3.14s3.87-3.05,4.84-2,1,2.83,0,4.47-1,2.87-.48,3.78c.35.66-1.27,4.12-2.08,6.22,6-2.5,13.23-10.4,13.23-10.4S169,34.69,147.62,26.55Z" transform="translate(-82.59 -25.56)"/><polygon class="cls-1" points="44.41 43.44 43.41 65.44 66.41 60.44 62.41 41.44 44.41 43.44"/><path class="cls-3" d="M127.16,69.69c-.39.32-.2,1.33-.32,4.3,11.23,1,19.25-3.75,18.72-4.79l-.14.07C140.18,71.51,132.41,71.24,127.16,69.69Z" transform="translate(-82.59 -25.56)"/><path class="cls-1" d="M90,223s-5,4-6,8-2,14-1,15,5-7,6-8,2-1.78,1,.61-.17,3.61.41,3S95,238,95,237s1-6,1-8v-5Z" transform="translate(-82.59 -25.56)"/><path class="cls-4" d="M175,152s11.5,22.5,12.5,26.5,2,9,3,11,4,6,6,10,13,21,13,21,4,2,7-1c0-6-5-30-6-34s-3-6-4-9-13-75-42-87c-7-3-10-2-10-2s-8,10-16,10c-4-3-5-9-5-9l-8,8c-2-1-5-6-5-10-4,0-12,2-17,8-4,7-6,31-6,31l-2,16s-9,61-7,81c4,5,8,2,8,2l9-28s1,21,3,23c0,0,0,2,7,4s54,3,65-4c5-4,4-6,4-6S175.5,162.5,175,152Z" transform="translate(-82.59 -25.56)"/><path class="cls-5" d="M128,409s-2,12-9,14-15,2-16,8h37.91s4.92-.48,0-20.74C135.09,405.74,128,409,128,409Z" transform="translate(-82.59 -25.56)"/><path class="cls-5" d="M222,395s9.39,8.73,9.7,12.86-4.61,7.8-6.15,10S223,424.91,222,427s2,4-19,4c-4-3,0-4,0-4s7.72-1.6,8.61-7.53.89-19.93.89-19.93Z" transform="translate(-82.59 -25.56)"/><path class="cls-6" d="M111.5,221.5l14,190s8,11,19,4c9-23,16-98,17-103l49,91s11,0,15-8c1-10-14-97-27-106s-13-72-17-71S150.5,228.5,111.5,221.5Z" transform="translate(-82.59 -25.56)"/><path class="cls-7" d="M122,223c.5.5,39.25,91.5,39.25,91.5l-2.95,24-43-65.5-3.8-51.54Z" transform="translate(-82.59 -25.56)"/><path class="cls-8" d="M204,242l-2-7a3,3,0,0,1,2-3.83c3-1.17,17.39-5.27,17.39-5.27a4.81,4.81,0,0,1,4.24,2.49A36.4,36.4,0,0,1,228,235Z" transform="translate(-82.59 -25.56)"/><path class="cls-9" d="M207,241s-2-5-2-6,2-1.87,2-1.87L221.16,229s.84,0,1.84,2a47.09,47.09,0,0,1,2,5Z" transform="translate(-82.59 -25.56)"/><path class="cls-8" d="M244,229l-57.43,17.09S177,250,179,259s7,25,7,25,3,10,18,6,53-16,53-16,11-5,8-16-7-23-7-23S253,226,244,229Z" transform="translate(-82.59 -25.56)"/><path class="cls-1" d="M210,220s-2.29,4-2.65,5-1.35,7-.35,7,2-2,2-2,0,4,2,4,9-2,10-3-3-12-6-13S210,220,210,220Z" transform="translate(-82.59 -25.56)"/><path class="cls-10" d="M102.5,141.5s-8,42,1,61l2-6Z" transform="translate(-82.59 -25.56)"/><path class="cls-10" d="M175,153s-6.5-17.5-8.5-16.5-8,63,12,81c2.5,2.5,5-1,5-1s1.5-1.5,1.1-2.5C185,214,175,153,175,153Z" transform="translate(-82.59 -25.56)"/><path class="cls-7" d="M130.48,218.19S139,205,139,201s-5-104-5-104l3.5-3-4-5.46L128,92l2,4s-10,100-8.52,106.5S129,217.38,130.48,218.19Z" transform="translate(-82.59 -25.56)"/><path class="cls-10" d="M154.5,87.5l-7-8s-5,9-14,9a11.43,11.43,0,0,1-7-10l-6,8s0,8,5.5,10.5c8-8,7.5-8.5,7.5-8.5S134,95,138,98C147.5,97.5,152,91,154.5,87.5Z" transform="translate(-82.59 -25.56)"/></svg>