<svg id="Слой_14" data-name="Слой 14" xmlns="http://www.w3.org/2000/svg" viewBox="0 0 542.93 131.91"><defs><style>.cls-1{fill:#2151a2;}.cls-2{fill:#608fff;}</style></defs><title>logo</title><path class="cls-1" d="M4907.24,304.86s-3,9.16-9,14.81-8.26,9.78-8.84,13.81,4.88,11.33,7.76,12.77,4.12-.09,2.35-2.06a11.68,11.68,0,0,1-2.39-7.2c.19-1.34.77-5.37,6.1-9.06s8.46-8.72,8.7-10.4S4912.27,310.38,4907.24,304.86Z" transform="translate(-4369.09 -215.87)"/><path class="cls-1" d="M4868.18,221.87s-5,28-20,47-20,32-20,44,19,31,28,34,12-2,6-7-10-16-10-20,0-16,14-29,21-29,21-34S4885.18,235.87,4868.18,221.87Z" transform="translate(-4369.09 -215.87)"/><path class="cls-1" d="M4893.53,270.27s-4.42,16.88-14.72,27.79-14.05,18.63-14.59,26,10.57,19.83,16.1,22.08,7.65-.66,4.1-4-5.58-10.24-5.4-12.69.72-9.77,10.13-17.06,14.54-16.75,14.77-19.8S4903.6,279.62,4893.53,270.27Z" transform="translate(-4369.09 -215.87)"/><path class="cls-1" d="M4444,247.78l3.18-15h13.56l-9.12,42.72h-13.56l3.36-15.72h-12.3l-3.36,15.72h-13.56l9.12-42.72h13.56l-3.18,15Z" transform="translate(-4369.09 -215.87)"/><path class="cls-1" d="M4481.33,276.51q-10.56,0-16-6.59t-3.18-17.71q2-9.65,8.52-15t16.56-5.37q10.56,0,16.14,6.6t3.24,17.63q-2.1,10-8.58,15.21T4481.33,276.51Zm1.56-11.51q7.74,0,9.9-10.26c.8-3.76.54-6.61-.78-8.53s-3.42-2.88-6.3-2.88q-7.5,0-9.78,10.09c-.8,3.83-.56,6.73.72,8.66S4480,265,4482.89,265Z" transform="translate(-4369.09 -215.87)"/><path class="cls-1" d="M4540.37,249l6.72-16.2H4568l-9.12,42.72h-13l2.58-12.12q3.3-15.18,4.2-18.48-.9,2.1-2.16,5c-.84,1.91-1.28,2.92-1.32,3L4539,275.5h-10.74l-.66-22.62q-.12-6.72-.06-7.87-1.74,10.22-3.54,18.37l-2.58,12.12h-13.32l9.12-42.72h20.1l.48,16.2q.12,4.2-.06,7Q4539,252.34,4540.37,249Z" transform="translate(-4369.09 -215.87)"/><path class="cls-1" d="M4609.85,232.78l-2.52,11.64h-21.42l-.9,4.2h19.86l-2.4,11.21h-19.86l-.9,4h21.54l-2.52,11.64h-35l9.12-42.72Z" transform="translate(-4369.09 -215.87)"/><path class="cls-1" d="M4415.35,295.31,4412.83,307h-21.42l-.9,4.2h19.86l-2.4,11.22h-19.86l-.9,4h21.54L4406.23,338h-35l9.12-42.72Z" transform="translate(-4369.09 -215.87)"/><path class="cls-1" d="M4446.43,302.27l1.5-7h12.9L4451.71,338h-13.5l-5.76-15.18q-1.56-4-2.7-7.74-1.62,9-3.12,16l-1.5,7h-12.9l9.12-42.72h13.56l5.58,15.18c.64,1.65,1.5,4.5,2.58,8.58Q4444.15,312.72,4446.43,302.27Z" transform="translate(-4369.09 -215.87)"/><path class="cls-1" d="M4491.19,322.55h-8l2-9.42h20.7l-5.28,24.9h-8.76v-3.66c-3.2,3.09-7.52,4.62-13,4.62q-9.48,0-14.16-6.84T4462.21,315q2-9.83,8.49-15.24t16.47-5.4q9.06,0,14.1,4.5a14.81,14.81,0,0,1,5.16,11.22h-13.5q-.9-4.2-6.84-4.2-8.1,0-10.26,10.38-2.34,11.34,6.54,11.34Q4488.49,327.59,4491.19,322.55Z" transform="translate(-4369.09 -215.87)"/><path class="cls-1" d="M4520.41,338h-13.56l9.12-42.72h13.56Z" transform="translate(-4369.09 -215.87)"/><path class="cls-1" d="M4561.45,302.27l1.5-7h12.9L4566.73,338h-13.5l-5.76-15.18q-1.56-4-2.7-7.74-1.62,9-3.12,16l-1.5,7h-12.9l9.12-42.72h13.56l5.58,15.18c.64,1.65,1.5,4.5,2.58,8.58Q4559.17,312.72,4561.45,302.27Z" transform="translate(-4369.09 -215.87)"/><path class="cls-1" d="M4617.73,295.31,4615.21,307h-21.42l-.9,4.2h19.86l-2.4,11.22h-19.86l-.9,4h21.54L4608.61,338h-35l9.12-42.72Z" transform="translate(-4369.09 -215.87)"/><path class="cls-1" d="M4658.77,295.31,4656.25,307h-21.42l-.9,4.2h19.86l-2.4,11.22h-19.86l-.9,4h21.54L4649.65,338h-35l9.12-42.72Z" transform="translate(-4369.09 -215.87)"/><path class="cls-1" d="M4664.77,295.31h19.86a29.5,29.5,0,0,1,7.17.78,11.71,11.71,0,0,1,4.65,2.14,10.36,10.36,0,0,1,2.58,3.14,7.53,7.53,0,0,1,.9,3.82,29.39,29.39,0,0,1-.42,4.1q-1.32,6.48-8.34,8.82,5.22,2.34,4.2,9.3l-.84,5.53q-.54,3.65,0,5.09h-14.1a14.38,14.38,0,0,1,.24-5.4l.6-3.23c.36-2,.23-3.45-.39-4.21s-1.93-1.14-3.93-1.14h-4.74l-2.94,14h-13.56Zm9.54,19h5.94c3,0,4.68-1.27,5.16-3.84.76-3.19-.56-4.8-4-4.8h-5.34Z" transform="translate(-4369.09 -215.87)"/><path class="cls-1" d="M4713.31,338h-13.56l9.12-42.72h13.56Z" transform="translate(-4369.09 -215.87)"/><path class="cls-1" d="M4754.35,302.27l1.5-7h12.9L4759.63,338h-13.5l-5.76-15.18q-1.56-4-2.7-7.74-1.62,9-3.12,16l-1.5,7h-12.9l9.12-42.72h13.56l5.58,15.18c.64,1.65,1.5,4.5,2.58,8.58Q4752.07,312.72,4754.35,302.27Z" transform="translate(-4369.09 -215.87)"/><path class="cls-1" d="M4799.11,322.55h-8l2-9.42h20.7l-5.28,24.9h-8.76v-3.66c-3.2,3.09-7.52,4.62-13,4.62q-9.48,0-14.16-6.84T4770.13,315q2-9.83,8.49-15.24t16.47-5.4q9.06,0,14.1,4.5a14.81,14.81,0,0,1,5.16,11.22h-13.5q-.9-4.2-6.84-4.2-8.1,0-10.26,10.38-2.34,11.34,6.54,11.34Q4796.41,327.59,4799.11,322.55Z" transform="translate(-4369.09 -215.87)"/><path class="cls-1" d="M4629.6,232.66h37.2l-2.52,11.7h-11.82l-6.6,31H4632.3l6.6-31h-11.82Z" transform="translate(-4369.09 -215.87)"/><path class="cls-1" d="M4707.18,232.66l-2.52,11.64h-21.42l-.9,4.2h19.86l-2.4,11.22h-19.86l-.9,4h21.54l-2.52,11.64h-35l9.12-42.72Z" transform="translate(-4369.09 -215.87)"/><path class="cls-1" d="M4748,275.38h-13.92l-.48-5.58h-15.42l-2.82,5.58h-14.28l23.76-42.72h17Zm-19.74-25.32-5,9.84h9.48l-.84-9.84q-.12-1.38-.66-6.36Q4729.44,247.84,4728.3,250.06Z" transform="translate(-4369.09 -215.87)"/><path class="cls-1" d="M4784.22,248.86l6.72-16.2h20.88l-9.12,42.72h-13l2.58-12.12q3.3-15.18,4.2-18.48-.9,2.1-2.16,5t-1.32,3l-10.2,22.62H4772.1l-.66-22.62q-.12-6.72-.06-7.86-1.74,10.2-3.54,18.36l-2.58,12.12h-13.32l9.12-42.72h20.1l.48,16.2q.12,4.2-.06,7Q4782.84,252.22,4784.22,248.86Z" transform="translate(-4369.09 -215.87)"/><path class="cls-2" d="M4441.91,242.11l3.18-15h13.56l-9.12,42.72H4436l3.36-15.72H4427l-3.36,15.72h-13.56l9.12-42.72h13.56l-3.18,15Z" transform="translate(-4369.09 -215.87)"/><path class="cls-2" d="M4479.23,270.84q-10.56,0-16-6.59t-3.18-17.71q2-9.64,8.52-15t16.56-5.37q10.56,0,16.14,6.6t3.24,17.63q-2.1,10-8.58,15.21T4479.23,270.84Zm1.56-11.51q7.74,0,9.9-10.26c.8-3.76.54-6.61-.78-8.53s-3.42-2.87-6.3-2.87q-7.5,0-9.78,10.08c-.8,3.83-.56,6.73.72,8.67S4477.91,259.33,4480.79,259.33Z" transform="translate(-4369.09 -215.87)"/><path class="cls-2" d="M4538.27,243.31l6.72-16.2h20.88l-9.12,42.72h-13l2.58-12.12q3.3-15.18,4.2-18.48-.9,2.1-2.16,5t-1.32,3l-10.2,22.62h-10.74l-.66-22.62q-.12-6.72-.06-7.87-1.74,10.22-3.54,18.37l-2.58,12.12H4506l9.12-42.72h20.1l.48,16.2q.12,4.2-.06,7Q4536.89,246.67,4538.27,243.31Z" transform="translate(-4369.09 -215.87)"/><path class="cls-2" d="M4607.75,227.11l-2.52,11.64h-21.42l-.9,4.2h19.86l-2.4,11.22h-19.86l-.9,4h21.54l-2.52,11.64h-35l9.12-42.72Z" transform="translate(-4369.09 -215.87)"/><path class="cls-2" d="M4413.25,289.65l-2.52,11.63h-21.42l-.9,4.2h19.86l-2.4,11.22H4386l-.9,4h21.54l-2.52,11.63h-35l9.12-42.71Z" transform="translate(-4369.09 -215.87)"/><path class="cls-2" d="M4444.33,296.6l1.5-7h12.9l-9.12,42.71h-13.5l-5.76-15.17q-1.56-4-2.7-7.75-1.62,9-3.12,16l-1.5,7h-12.9l9.12-42.71h13.56l5.58,15.17c.64,1.65,1.5,4.5,2.58,8.58Q4442,307.06,4444.33,296.6Z" transform="translate(-4369.09 -215.87)"/><path class="cls-2" d="M4489.09,316.88h-8l2-9.42h20.7l-5.28,24.9h-8.76V328.7c-3.2,3.09-7.52,4.62-13,4.62q-9.48,0-14.16-6.84t-2.52-17.16q2-9.82,8.49-15.24t16.47-5.39q9.06,0,14.1,4.5a14.77,14.77,0,0,1,5.16,11.21h-13.5q-.9-4.2-6.84-4.2-8.1,0-10.26,10.38-2.34,11.35,6.54,11.34Q4486.39,321.92,4489.09,316.88Z" transform="translate(-4369.09 -215.87)"/><path class="cls-2" d="M4518.31,332.36h-13.56l9.12-42.71h13.56Z" transform="translate(-4369.09 -215.87)"/><path class="cls-2" d="M4559.35,296.6l1.5-7h12.9l-9.12,42.71h-13.5l-5.76-15.17q-1.56-4-2.7-7.75-1.62,9-3.12,16l-1.5,7h-12.9l9.12-42.71h13.56l5.58,15.17c.64,1.65,1.5,4.5,2.58,8.58Q4557.07,307.06,4559.35,296.6Z" transform="translate(-4369.09 -215.87)"/><path class="cls-2" d="M4615.63,289.65l-2.52,11.63h-21.42l-.9,4.2h19.86l-2.4,11.22h-19.86l-.9,4H4609l-2.52,11.63h-35l9.12-42.71Z" transform="translate(-4369.09 -215.87)"/><path class="cls-2" d="M4656.67,289.65l-2.52,11.63h-21.42l-.9,4.2h19.86l-2.4,11.22h-19.86l-.9,4h21.54l-2.52,11.63h-35l9.12-42.71Z" transform="translate(-4369.09 -215.87)"/><path class="cls-2" d="M4662.67,289.65h19.86a29.54,29.54,0,0,1,7.17.77,11.71,11.71,0,0,1,4.65,2.14,10.36,10.36,0,0,1,2.58,3.14,7.53,7.53,0,0,1,.9,3.82,29.39,29.39,0,0,1-.42,4.1q-1.32,6.48-8.34,8.82,5.22,2.34,4.2,9.3l-.84,5.53q-.54,3.64,0,5.09h-14.1a14.38,14.38,0,0,1,.24-5.4l.6-3.23c.36-2,.23-3.45-.39-4.21s-1.93-1.14-3.93-1.14h-4.74l-2.94,14h-13.56Zm9.54,19h5.94c3,0,4.68-1.27,5.16-3.84.76-3.19-.56-4.8-4-4.8H4674Z" transform="translate(-4369.09 -215.87)"/><path class="cls-2" d="M4711.21,332.36h-13.56l9.12-42.71h13.56Z" transform="translate(-4369.09 -215.87)"/><path class="cls-2" d="M4752.25,296.6l1.5-7h12.9l-9.12,42.71H4744l-5.76-15.17q-1.56-4-2.7-7.75-1.62,9-3.12,16l-1.5,7h-12.9l9.12-42.71h13.56l5.58,15.17c.64,1.65,1.5,4.5,2.58,8.58Q4750,307.06,4752.25,296.6Z" transform="translate(-4369.09 -215.87)"/><path class="cls-2" d="M4797,316.88h-8l2-9.42h20.7l-5.28,24.9h-8.76V328.7c-3.21,3.09-7.52,4.62-13,4.62q-9.49,0-14.16-6.84T4768,309.32q2-9.82,8.49-15.24t16.47-5.39q9.06,0,14.1,4.5a14.77,14.77,0,0,1,5.16,11.21h-13.5q-.9-4.2-6.84-4.2-8.1,0-10.26,10.38-2.34,11.35,6.54,11.34Q4794.31,321.92,4797,316.88Z" transform="translate(-4369.09 -215.87)"/><path class="cls-2" d="M4627.5,227h37.2l-2.52,11.7h-11.82l-6.6,31H4630.2l6.6-31H4625Z" transform="translate(-4369.09 -215.87)"/><path class="cls-2" d="M4705.08,227l-2.52,11.64h-21.42l-.9,4.2h19.86l-2.4,11.22h-19.86l-.9,4h21.54L4696,269.71h-35L4670,227Z" transform="translate(-4369.09 -215.87)"/><path class="cls-2" d="M4745.94,269.71H4732l-.48-5.58h-15.42l-2.82,5.58H4699L4722.78,227h17Zm-19.74-25.32-5,9.84h9.48l-.84-9.84q-.12-1.38-.66-6.36Q4727.34,242.17,4726.2,244.39Z" transform="translate(-4369.09 -215.87)"/><path class="cls-2" d="M4782.12,243.19l6.72-16.2h20.88l-9.12,42.72h-13l2.58-12.12q3.3-15.18,4.2-18.48-.9,2.1-2.16,5t-1.32,3l-10.2,22.62H4770l-.66-22.62q-.12-6.72-.06-7.86-1.74,10.2-3.54,18.36l-2.58,12.12h-13.32L4759,227h20.1l.48,16.2q.12,4.2-.06,7Q4780.74,246.55,4782.12,243.19Z" transform="translate(-4369.09 -215.87)"/><path class="cls-2" d="M4862.18,215.87s-5,28-20,47-20,32-20,44,19,31,28,34,12-2,6-7-10-16-10-20,0-16,14-29,21-29,21-34S4879.18,229.87,4862.18,215.87Z" transform="translate(-4369.09 -215.87)"/><path class="cls-2" d="M4888.53,264.27s-4.42,16.88-14.72,27.79-14.05,18.63-14.59,26,10.57,19.83,16.1,22.08,7.65-.66,4.1-4-5.58-10.24-5.4-12.69.72-9.77,10.13-17.06,14.54-16.75,14.77-19.8S4898.6,273.62,4888.53,264.27Z" transform="translate(-4369.09 -215.87)"/><path class="cls-2" d="M4903.79,300.22s-3,9.16-9,14.82-8.27,9.78-8.85,13.81,4.89,11.33,7.76,12.77,4.13-.09,2.36-2.06a11.57,11.57,0,0,1-2.39-7.2c.19-1.34.77-5.37,6.1-9.06s8.45-8.73,8.7-10.41S4908.82,305.75,4903.79,300.22Z" transform="translate(-4369.09 -215.87)"/></svg>